<svg xmlns="http://www.w3.org/2000/svg" width="113" height="63" viewBox="0 0 113 63" role="img" aria-label="Animated delivery pipeline artifact">
  <path d="M7 47 L54 22 L106 44 L59 61 Z" fill="#ecece7" stroke="#b8b8b2" stroke-width=".7"/>
  <path d="M7 47 L59 61 L106 44" fill="none" stroke="#b8b8b2" stroke-width=".45" opacity=".55"/>

  <circle cx="12" cy="41" r="5" fill="#f6f6f2" stroke="#171717" stroke-width=".85"/>
  <circle cx="12" cy="41" r="1.4" fill="#5f7fff"/>
  <circle cx="12" cy="41" r="7" fill="none" stroke="#5f7fff" stroke-width=".5" opacity=".24">
    <animate attributeName="r" values="5.2;8;5.2" dur="2.6s" repeatCount="indefinite"/>
    <animate attributeName="opacity" values=".38;0;.38" dur="2.6s" repeatCount="indefinite"/>
  </circle>

  <g transform="translate(24 37)">
    <path d="M0 0 L7 -3.5 L14 0 L7 3.5 Z" fill="#ecece7" stroke="#171717" stroke-width=".65"/>
    <path d="M0 0 V8 L7 11.5 V3.5 Z" fill="#f6f6f2" stroke="#171717" stroke-width=".65"/>
    <path d="M14 0 V8 L7 11.5 V3.5 Z" fill="#ecece7" stroke="#171717" stroke-width=".65"/>
    <animateTransform attributeName="transform" type="translate" values="24 37;24 34;24 37" dur="2.8s" repeatCount="indefinite"/>
  </g>

  <g transform="translate(41 30)">
    <path d="M0 0 L7 -3.5 L14 0 L7 3.5 Z" fill="#edf1ff" stroke="#171717" stroke-width=".65"/>
    <path d="M0 0 V13 L7 16.5 V3.5 Z" fill="#dfe6ff" stroke="#171717" stroke-width=".65"/>
    <path d="M14 0 V13 L7 16.5 V3.5 Z" fill="#f6f6f2" stroke="#171717" stroke-width=".65"/>
    <animateTransform attributeName="transform" type="translate" values="41 30;41 25;41 30" begin="-.45s" dur="2.8s" repeatCount="indefinite"/>
  </g>

  <g transform="translate(59 24)">
    <path d="M0 0 L7 -3.5 L14 0 L7 3.5 Z" fill="#5f7fff" stroke="#171717" stroke-width=".65"/>
    <path d="M0 0 V18 L7 21.5 V3.5 Z" fill="#dfe6ff" stroke="#171717" stroke-width=".65"/>
    <path d="M14 0 V18 L7 21.5 V3.5 Z" fill="#f6f6f2" stroke="#171717" stroke-width=".65"/>
    <animateTransform attributeName="transform" type="translate" values="59 24;59 17;59 24" begin="-.9s" dur="2.8s" repeatCount="indefinite"/>
  </g>

  <g transform="translate(77 29)">
    <path d="M0 0 L7 -3.5 L14 0 L7 3.5 Z" fill="#74cf91" stroke="#171717" stroke-width=".65"/>
    <path d="M0 0 V13 L7 16.5 V3.5 Z" fill="#dff5e6" stroke="#171717" stroke-width=".65"/>
    <path d="M14 0 V13 L7 16.5 V3.5 Z" fill="#f6f6f2" stroke="#171717" stroke-width=".65"/>
    <animateTransform attributeName="transform" type="translate" values="77 29;77 24;77 29" begin="-1.35s" dur="2.8s" repeatCount="indefinite"/>
  </g>

  <g transform="translate(94 35)">
    <path d="M0 0 L6 -3 L12 0 L6 3 Z" fill="#d8e977" stroke="#171717" stroke-width=".65"/>
    <path d="M0 0 V8 L6 11 V3 Z" fill="#f0f5c7" stroke="#171717" stroke-width=".65"/>
    <path d="M12 0 V8 L6 11 V3 Z" fill="#f6f6f2" stroke="#171717" stroke-width=".65"/>
    <animateTransform attributeName="transform" type="translate" values="94 35;94 32;94 35" begin="-1.8s" dur="2.8s" repeatCount="indefinite"/>
  </g>

  <path d="M17 41 C29 37 37 33 48 30 C59 27 67 27 83 31 C91 33 97 36 104 40" fill="none" stroke="#5f7fff" stroke-width="1" stroke-dasharray="2 2"/>
  <circle r="1.6" fill="#5f7fff">
    <animateMotion dur="3.2s" repeatCount="indefinite" path="M17 41 C29 37 37 33 48 30 C59 27 67 27 83 31 C91 33 97 36 104 40"/>
    <animate attributeName="fill" values="#5f7fff;#5f7fff;#74cf91;#d8e977" keyTimes="0;.45;.75;1" dur="3.2s" repeatCount="indefinite"/>
  </circle>

  <path d="M32 49 L72 27" stroke="#5f7fff" stroke-width="3" opacity="0">
    <animateTransform attributeName="transform" type="translate" values="-18 9;34 -16;-18 9" dur="3.2s" repeatCount="indefinite"/>
    <animate attributeName="opacity" values="0;.16;0" dur="3.2s" repeatCount="indefinite"/>
  </path>
</svg>